<?xml version="1.0" encoding="UTF-8"?>
<svg version="1.1" xmlns="http://www.w3.org/2000/svg" width="1000" height="1000">
<path d="M0 0 C0.79019531 0.63292969 1.58039062 1.26585938 2.39453125 1.91796875 C18.8770871 15.75293295 28.60111655 35.19850028 33 56 C33.28617188 57.34771484 33.28617188 57.34771484 33.578125 58.72265625 C37.20920476 86.93076663 30.213514 111.91804459 13.1736145 134.4108429 C6.23908291 143.12368489 -1.60639784 150.84182907 -9.5078125 158.66796875 C-11.00327198 160.15714168 -12.49820671 161.64684172 -13.99264526 163.13703918 C-17.90155369 167.03274135 -21.81601191 170.92281316 -25.73217773 174.81121826 C-32.00642817 181.04209757 -38.27380663 187.27987024 -44.53792953 193.52092934 C-46.71290262 195.68576813 -48.89130151 197.84711354 -51.07009888 200.00810242 C-52.41550319 201.34667273 -53.76079509 202.68535604 -55.10595703 204.02416992 C-56.00077286 204.9088797 -56.00077286 204.9088797 -56.91366577 205.8114624 C-60.55296511 209.44106391 -63.96132691 213.212555 -67.32311249 217.09964466 C-69.71688618 219.81242091 -72.25344992 222.35569146 -74.83666992 224.88671875 C-75.37437012 225.4181398 -75.91207031 225.94956085 -76.46606445 226.49708557 C-77.61947837 227.63678835 -78.77398087 228.77539036 -79.92949486 229.91296387 C-81.77263675 231.72904899 -83.61102296 233.54982556 -85.44807434 235.37207031 C-90.66686502 240.54855153 -95.88810579 245.72245918 -101.1262207 250.87939453 C-104.34635762 254.05030983 -107.55604359 257.23150479 -110.75966835 260.4190979 C-111.96571274 261.61540776 -113.17535701 262.80810227 -114.38902855 263.99667358 C-135.58297151 284.76219777 -152.87549873 309.79089613 -153.25 340.5 C-153.1979351 372.48272428 -135.8980047 396.26441085 -114.203125 417.95703125 C-110.56063192 421.58420657 -106.90671052 425.19966488 -103.25 428.8125 C-100.46938469 431.56532366 -97.69033621 434.31968539 -94.91424561 437.07707214 C-93.19967143 438.77956587 -91.48243329 440.47938269 -89.76202393 442.17597961 C-88.97720642 442.9542662 -88.19238892 443.7325528 -87.38378906 444.53442383 C-86.704151 445.20580887 -86.02451294 445.87719391 -85.32427979 446.56892395 C-83.39292445 448.58902141 -81.56462291 450.64445695 -79.7409668 452.76002502 C-75.93411819 457.13826373 -71.8850701 461.22755408 -67.76074219 465.30517578 C-66.96784286 466.09340225 -66.17494354 466.88162872 -65.35801697 467.69374084 C-63.64802223 469.39329284 -61.93693082 471.09174202 -60.22484589 472.78918839 C-57.50451749 475.48732446 -54.78831799 478.18955356 -52.07330322 480.89303589 C-44.35733291 488.57558297 -36.63745844 496.25416829 -28.90673828 503.921875 C-24.16499462 508.62506337 -19.43146614 513.33639394 -14.70218658 518.05212021 C-12.91105606 519.8352637 -11.11716709 521.61564129 -9.32033539 523.3930397 C13.73777756 546.20615457 33.99904345 570.71788139 34.3293457 604.73901367 C34.32100708 606.2294519 34.32100708 606.2294519 34.3125 607.75 C34.30758545 608.79841064 34.3026709 609.84682129 34.29760742 610.92700195 C33.89854746 637.50439529 22.50102479 659.94454213 4.37890625 678.71484375 C-12.76827813 695.25053864 -35.15408061 703.58198734 -58.87255859 703.35131836 C-86.57072269 702.54948529 -110.82119791 689.23332273 -130.8125 670.75 C-131.63616562 669.98855682 -131.63616562 669.98855682 -132.47647095 669.21173096 C-139.52239171 662.64467101 -146.32232048 655.82735681 -153.12255859 649.0078125 C-155.38915993 646.73580631 -157.66111959 644.46925556 -159.93359375 642.203125 C-161.40136271 640.73469583 -162.86882176 639.2659568 -164.3359375 637.796875 C-165.00273529 637.13210144 -165.66953308 636.46732788 -166.35653687 635.78240967 C-166.99475372 635.14104065 -167.63297058 634.49967163 -168.29052734 633.83886719 C-168.83977875 633.28882019 -169.38903015 632.73877319 -169.95492554 632.17205811 C-171.76811393 630.24628444 -173.49584596 628.27810595 -175.22319031 626.27581787 C-179.02029917 621.91698049 -183.04191457 617.82418619 -187.13842773 613.74804688 C-188.31038948 612.57586609 -188.31038948 612.57586609 -189.50602722 611.38000488 C-192.06285026 608.82387283 -194.62318606 606.27129097 -197.18359375 603.71875 C-198.96742768 601.93678315 -200.75103947 600.15459389 -202.53443909 598.37219238 C-206.73269178 594.17735442 -210.93316307 589.98474686 -215.13474089 585.79324007 C-219.9227812 581.01642468 -224.70794072 576.23672782 -229.49287498 571.45680141 C-239.32540875 561.63468576 -249.16150736 551.81614659 -259 542 C-261.83774031 543.29130681 -263.89555106 544.64571485 -266.09635639 546.84746742 C-266.68521415 547.43172639 -267.27407191 548.01598535 -267.88077384 548.61794913 C-268.51802695 549.2603458 -269.15528006 549.90274247 -269.81184387 550.56460571 C-270.83861717 551.58775739 -270.83861717 551.58775739 -271.88613337 552.6315788 C-274.18383926 554.92363888 -276.47431342 557.22279205 -278.76489258 559.52197266 C-280.40885411 561.16486148 -282.05324845 562.80731732 -283.69804382 564.44937134 C-288.1696723 568.91614481 -292.63501238 573.38915688 -297.09914231 577.86342287 C-301.29824886 582.07041677 -305.50165954 586.27310252 -309.70493015 590.47593538 C-318.03893221 598.80943671 -326.36809311 607.14776003 -334.69458008 615.48876953 C-342.76420843 623.57246505 -350.83730969 631.65267077 -358.91430664 639.72900391 C-359.65951645 640.47415378 -359.65951645 640.47415378 -360.41978101 641.23435719 C-360.91574734 641.73028317 -361.41171367 642.22620915 -361.92270929 642.73716319 C-371.59210783 652.40583533 -381.25763877 662.07836637 -390.92208648 671.75198698 C-393.70394531 674.5359742 -396.48651146 677.31925277 -399.26923561 680.10237503 C-403.65051065 684.48465761 -408.02921555 688.86949271 -412.40597725 693.25628281 C-414.00989914 694.86311612 -415.6146569 696.46911559 -417.22032547 698.07420349 C-419.41827646 700.27166056 -421.61311084 702.47218554 -423.8072052 704.67349243 C-424.43776614 705.30250477 -425.06832709 705.93151712 -425.71799594 706.57959044 C-429.43365841 710.31533224 -432.96059188 714.16693547 -436.39280522 718.16504103 C-439.10235712 721.25857805 -442.00233058 724.15803491 -444.90649414 727.06762695 C-445.88378983 728.05237 -445.88378983 728.05237 -446.88082886 729.05700684 C-449.01286499 731.20351022 -451.14865067 733.34622698 -453.28515625 735.48828125 C-454.02250944 736.22846182 -454.75986263 736.96864239 -455.51955986 737.73125267 C-459.42333665 741.64996072 -463.32993638 745.56582768 -467.23901367 749.47924805 C-471.24077282 753.48647685 -475.23317408 757.50289228 -479.22339725 761.52160358 C-482.32501407 764.6420011 -485.43347153 767.75551802 -488.54372978 770.86730003 C-490.0167646 772.34332817 -491.48733931 773.82181628 -492.95521736 775.30297279 C-516.76900343 799.31671126 -544.04257032 819.24284932 -579.1875 819.4375 C-604.31132785 819.14691426 -625.44885903 808.95464811 -643.5625 791.8125 C-663.19726293 771.58904047 -670.5895129 745.97233768 -670.28125 718.4375 C-669.63101673 696.27755002 -659.30889287 675.5636275 -645 659 C-644.41347656 658.29230469 -643.82695313 657.58460938 -643.22265625 656.85546875 C-639.79032111 652.78492163 -636.13666 649.30627449 -632.07463074 645.87234497 C-630.12694965 644.11457149 -628.46441105 642.31481199 -626.7746582 640.31201172 C-622.91212535 635.83964572 -618.79697572 631.67041952 -614.60546875 627.5078125 C-613.79639069 626.7001947 -612.98731262 625.8925769 -612.15371704 625.06048584 C-610.4093918 623.31994465 -608.663913 621.5805589 -606.91738892 619.84222412 C-604.14849766 617.0861786 -601.38281417 614.32694953 -598.61791992 611.56689453 C-592.25045092 605.21140541 -585.8779507 598.86096893 -579.50538635 592.5105896 C-573.19273579 586.21980221 -566.88210543 579.92700491 -560.57485962 573.63079834 C-557.85884228 570.9212322 -555.13981515 568.21471172 -552.4206543 565.50830078 C-550.745131 563.83641228 -549.06974921 562.16438194 -547.39453125 560.4921875 C-546.64523346 559.74805603 -545.89593567 559.00392456 -545.12393188 558.23724365 C-541.08953384 554.20324828 -537.23106959 550.07874336 -533.52235126 545.74255562 C-531.21054056 543.0963472 -528.72496492 540.68606984 -526.19921875 538.2421875 C-525.12779874 537.19317434 -524.05685037 536.14367931 -522.98632812 535.09375 C-521.34594406 533.49010002 -519.70281299 531.88975786 -518.05102539 530.29785156 C-507.85083832 520.44812854 -498.71493692 509.82090365 -492.625 496.875 C-492.14232666 495.87581543 -492.14232666 495.87581543 -491.64990234 494.85644531 C-481.8757545 474.17750238 -480.1588209 452.46497277 -487.06640625 430.62890625 C-492.66989992 415.223922 -501.21997716 402.09017832 -512.31323242 390.11645508 C-512.82784877 389.56043263 -513.34246511 389.00441019 -513.8726759 388.43153858 C-519.9734088 381.89052051 -526.30537317 375.5817708 -532.6481266 369.2767086 C-534.85881701 367.07902443 -537.06615519 364.87801883 -539.27275085 362.67622375 C-543.94982031 358.01045483 -548.63085935 353.34868156 -553.3125 348.6875 C-558.76245056 343.26126854 -564.21069725 337.83334768 -569.6547451 332.40119362 C-571.81678348 330.24557838 -573.98183663 328.09302397 -576.14704895 325.94059753 C-577.48270318 324.60857841 -578.81821577 323.27641723 -580.15356445 321.9440918 C-580.7453952 321.35742737 -581.33722595 320.77076294 -581.94699097 320.1663208 C-585.57988178 316.53388372 -588.98679444 312.76022654 -592.34748173 308.8754282 C-594.59812786 306.32119005 -596.98298681 303.92748827 -599.40942383 301.54052734 C-599.90156876 301.05466156 -600.39371368 300.56879578 -600.90077209 300.06820679 C-601.95432444 299.02834548 -603.00897198 297.98959276 -604.06464577 296.95188522 C-605.74763206 295.29599025 -607.42583056 293.63537813 -609.10270691 291.97329712 C-613.8656493 287.2526385 -618.63112899 282.53465394 -623.41333008 277.83349609 C-626.35462151 274.94136504 -629.28550615 272.03901429 -632.21033287 269.13023758 C-633.31197625 268.03833926 -634.41722226 266.95006073 -635.52646828 265.86588669 C-645.44360539 256.16791945 -654.42284267 245.5263121 -660.375 232.875 C-660.85767334 231.87690308 -660.85767334 231.87690308 -661.35009766 230.85864258 C-672.0664146 208.20540334 -673.69108653 181.55372907 -665.23632812 157.85986328 C-655.83683534 133.19464751 -638.83730777 113.69437335 -614.80859375 102.65234375 C-592.5176239 92.83588229 -568.75666862 92.85194511 -546.02490234 101.20654297 C-523.97308008 109.84753915 -507.58901242 125.24516059 -491.11474609 141.77172852 C-489.85241847 143.03433883 -488.58986938 144.29672776 -487.32711792 145.55891418 C-483.92888249 148.95686486 -480.53372064 152.35787116 -477.13913679 155.75946927 C-473.58021101 159.32468241 -470.01841841 162.88702922 -466.4569397 166.44969177 C-459.72622749 173.18350151 -452.9980666 179.91985436 -446.27083743 186.65714353 C-438.60647758 194.33271372 -430.93924917 202.00541574 -423.27178836 209.67788804 C-407.51135034 225.44875469 -391.75448601 241.22318767 -376 257 C-372.06097884 253.67465377 -368.20245228 250.32764892 -364.55273438 246.68212891 C-363.7550061 245.8875528 -362.95727783 245.09297668 -362.13537598 244.27432251 C-361.2966394 243.43356171 -360.45790283 242.5928009 -359.59375 241.7265625 C-358.71021851 240.84398773 -357.82668701 239.96141296 -356.91638184 239.05209351 C-354.58280517 236.71936708 -352.2516665 234.38423659 -349.92132568 232.04827881 C-348.5026376 230.62764122 -347.08201953 229.20896459 -345.66064453 227.79101562 C-342.90647197 225.043058 -340.1558274 222.29161726 -337.40625 219.5390625 C-336.56751343 218.70235016 -335.72877686 217.86563782 -334.86462402 217.00357056 C-334.06689575 216.20269012 -333.26916748 215.40180969 -332.44726562 214.57666016 C-331.75556274 213.88416168 -331.06385986 213.19166321 -330.35119629 212.47817993 C-328.45575321 210.48036758 -326.6575791 208.45306365 -324.8644104 206.36567211 C-321.01633563 201.9596395 -316.95403576 197.8058231 -312.8182373 193.67106628 C-312.02246356 192.87161585 -311.22668981 192.07216541 -310.4068017 191.2484892 C-307.75728583 188.58801868 -305.10425843 185.93107932 -302.45117188 183.27416992 C-300.54328325 181.36001049 -298.63557796 179.44566973 -296.72805786 177.53114319 C-291.01825253 171.80166977 -285.30368694 166.07695585 -279.58849692 160.35285446 C-277.43130977 158.19215296 -275.27443882 156.03113598 -273.11758444 153.87010231 C-263.59282977 144.32689256 -254.06672171 134.78503617 -244.53658295 125.24720287 C-242.20960041 122.91831083 -239.88262332 120.58941335 -237.55566406 118.26049805 C-236.97739673 117.68174698 -236.39912941 117.10299591 -235.80333883 116.50670693 C-226.44349964 107.13857361 -217.09221152 97.7619532 -207.74448341 88.38173672 C-198.12288894 78.72697797 -188.49369162 69.07985452 -178.85709429 59.44006997 C-173.45650872 54.03732841 -168.05919924 48.6314042 -162.6703949 43.21690941 C-158.08004283 38.6047222 -153.48276114 33.9995808 -148.8766492 29.40313049 C-146.53246503 27.06345372 -144.19268824 24.7198007 -141.85945511 22.36917496 C-103.35220249 -16.40881971 -47.61609494 -40.13712715 0 0 Z " fill="#A12A29" transform="translate(805,101)"/>
<path d="M0 0 C7.97100144 6.89655635 15.43977826 14.27345462 22.90112305 21.70825195 C24.1651192 22.96432729 25.42928944 24.22022744 26.69361877 25.47596741 C30.80331842 29.55972842 34.90781908 33.64869291 39.01171875 37.73828125 C40.4301431 39.15133885 41.84857283 40.56439106 43.26700783 41.97743797 C49.16035165 47.84921622 55.05228352 53.72240518 60.94050884 59.5993166 C69.3641279 68.0066358 77.79618053 76.40529303 86.23995942 84.79236633 C92.190213 90.7040157 98.1309412 96.62512901 104.06457359 102.55346078 C107.60568207 106.0909098 111.15088319 109.62402092 114.70630455 113.147089 C118.0406704 116.45153353 121.36314176 119.7674766 124.67665672 123.09282494 C125.89663713 124.31302725 127.12093769 125.52892705 128.34973526 126.74024963 C130.02094998 128.3889723 131.67618683 130.05221132 133.32817078 131.72016907 C134.2600204 132.64870854 135.19187002 133.57724802 136.15195751 134.53392506 C138 137 138 137 137.87897968 139.22667217 C136.81002607 141.38326944 135.59730036 142.66305371 133.82421875 144.29296875 C132.83808594 145.22508179 132.83808594 145.22508179 131.83203125 146.17602539 C131.12433594 146.83981201 130.41664063 147.50359863 129.6875 148.1875 C110.90032653 166.41902604 95.30391762 191.08235736 94.70800781 217.91455078 C94.62417124 228.2284455 95.82392351 237.19510881 99 247 C99.27714844 247.87398438 99.55429687 248.74796875 99.83984375 249.6484375 C108.90671344 274.8016889 128.77562919 293.95295413 147.28613281 312.3996582 C148.460517 313.57375931 149.63467905 314.74808265 150.80863953 315.92260742 C153.95228949 319.06654067 157.09898118 322.20741256 160.24628925 325.34768319 C163.55124465 328.6463259 166.85330942 331.94785983 170.15570068 335.24906921 C176.39004189 341.4803202 182.62692443 347.70902092 188.8647573 353.93677634 C195.97451845 361.03530408 203.08139126 368.13672062 210.18804026 375.23836386 C224.78884806 389.82875964 239.39322288 404.4155804 254 419 C252.70564548 421.84716126 251.34509129 423.90386642 249.13412189 426.10918045 C248.54576284 426.70090491 247.95740378 427.29262936 247.35121566 427.90228486 C246.70424592 428.5427468 246.05727618 429.18320874 245.39070129 429.84307861 C244.70381106 430.53097214 244.01692082 431.21886566 243.30921572 431.92760444 C241.00098588 434.23678863 238.68567589 436.5387413 236.37036133 438.84082031 C234.71598409 440.49299677 233.06205398 442.14562105 231.40853882 443.79866028 C227.84339373 447.36086887 224.27511053 450.91989361 220.70438576 454.47650909 C215.53357879 459.62695041 210.36846095 464.78306827 205.20505079 469.94092271 C196.8167546 478.31996098 188.42436937 486.6948907 180.02905273 495.06689453 C179.52660601 495.56794794 179.02415929 496.06900135 178.50648692 496.58523819 C178.00343804 497.08689154 177.50038916 497.58854488 176.98209637 498.10539985 C169.8613089 505.20644869 162.74146934 512.30844609 155.62280273 519.41162109 C155.12248375 519.91084923 154.62216477 520.41007736 154.1066846 520.92443362 C145.75069172 529.26237382 137.39674855 537.60236573 129.04384822 545.94340396 C123.43866774 551.54033917 117.83053814 557.13430261 112.2202059 562.72607374 C108.72427383 566.21133627 105.23039316 569.69864998 101.73701096 573.18646812 C100.12022598 574.79979256 98.50257038 576.41224507 96.88396645 578.02374458 C94.6683759 580.22982709 92.45594412 582.43903204 90.24421692 584.64898682 C89.60840079 585.28052587 88.97258465 585.91206492 88.31750137 586.56274152 C84.58425834 590.30068774 81.04572321 594.15631965 77.60538697 598.16590255 C74.89723116 601.25987412 71.99723947 604.15846567 69.09350586 607.06762695 C68.11621017 608.05237 68.11621017 608.05237 67.11917114 609.05700684 C64.98713501 611.20351022 62.85134933 613.34622698 60.71484375 615.48828125 C59.97749056 616.22846182 59.24013737 616.96864239 58.48044014 617.73125267 C54.57666335 621.64996072 50.67006362 625.56582768 46.76098633 629.47924805 C42.75922718 633.48647685 38.76682592 637.50289228 34.77660275 641.52160358 C31.67498593 644.6420011 28.56652847 647.75551802 25.45627022 650.86730003 C23.9832354 652.34332817 22.51266069 653.82181628 21.04478264 655.30297279 C-2.76900343 679.31671126 -30.04257032 699.24284932 -65.1875 699.4375 C-90.31132785 699.14691426 -111.44885903 688.95464811 -129.5625 671.8125 C-149.19726293 651.58904047 -156.5895129 625.97233768 -156.28125 598.4375 C-155.63101673 576.27755002 -145.30889287 555.5636275 -131 539 C-130.41347656 538.29230469 -129.82695312 537.58460938 -129.22265625 536.85546875 C-125.79032111 532.78492163 -122.13666 529.30627449 -118.07463074 525.87234497 C-116.12694965 524.11457149 -114.46441105 522.31481199 -112.7746582 520.31201172 C-108.91212535 515.83964572 -104.79697572 511.67041952 -100.60546875 507.5078125 C-99.79639069 506.7001947 -98.98731262 505.8925769 -98.15371704 505.06048584 C-96.4093918 503.31994465 -94.663913 501.5805589 -92.91738892 499.84222412 C-90.14849766 497.0861786 -87.38281417 494.32694953 -84.61791992 491.56689453 C-78.25045092 485.21140541 -71.8779507 478.86096893 -65.50538635 472.5105896 C-59.19273579 466.21980221 -52.88210543 459.92700491 -46.57485962 453.63079834 C-43.85884228 450.9212322 -41.13981515 448.21471172 -38.4206543 445.50830078 C-36.745131 443.83641228 -35.06974921 442.16438194 -33.39453125 440.4921875 C-32.64523346 439.74805603 -31.89593567 439.00392456 -31.12393188 438.23724365 C-27.08953384 434.20324828 -23.23106959 430.07874336 -19.52235126 425.74255562 C-17.21054056 423.0963472 -14.72496492 420.68606984 -12.19921875 418.2421875 C-11.12779874 417.19317434 -10.05685037 416.14367931 -8.98632812 415.09375 C-7.34594406 413.49010002 -5.70281299 411.88975786 -4.05102539 410.29785156 C6.14916168 400.44812854 15.28506308 389.82090365 21.375 376.875 C21.85767334 375.87581543 21.85767334 375.87581543 22.35009766 374.85644531 C32.1242455 354.17750238 33.8411791 332.46497277 26.93359375 310.62890625 C21.33010008 295.223922 12.78002284 282.09017832 1.68676758 270.11645508 C1.17215123 269.56043263 0.65753489 269.00441019 0.1273241 268.43153858 C-5.9734088 261.89052051 -12.30537317 255.5817708 -18.6481266 249.2767086 C-20.85881701 247.07902443 -23.06615519 244.87801883 -25.27275085 242.67622375 C-29.94982031 238.01045483 -34.63085935 233.34868156 -39.3125 228.6875 C-44.76245056 223.26126854 -50.21069725 217.83334768 -55.6547451 212.40119362 C-57.81678348 210.24557838 -59.98183663 208.09302397 -62.14704895 205.94059753 C-63.48270318 204.60857841 -64.81821577 203.27641723 -66.15356445 201.9440918 C-66.7453952 201.35742737 -67.33722595 200.77076294 -67.94699097 200.1663208 C-71.57988178 196.53388372 -74.98679444 192.76022654 -78.34748173 188.8754282 C-80.59812786 186.32119005 -82.98298681 183.92748827 -85.40942383 181.54052734 C-85.90156876 181.05466156 -86.39371368 180.56879578 -86.90077209 180.06820679 C-87.95432444 179.02834548 -89.00897198 177.98959276 -90.06464577 176.95188522 C-91.74763206 175.29599025 -93.42583056 173.63537813 -95.10270691 171.97329712 C-99.8656493 167.2526385 -104.63112899 162.53465394 -109.41333008 157.83349609 C-112.35462151 154.94136504 -115.28550615 152.03901429 -118.21033287 149.13023758 C-119.31197625 148.03833926 -120.41722226 146.95006073 -121.52646828 145.86588669 C-131.44360539 136.16791945 -140.42284267 125.5263121 -146.375 112.875 C-146.85767334 111.87690308 -146.85767334 111.87690308 -147.35009766 110.85864258 C-158.0664146 88.20540334 -159.69108653 61.55372907 -151.23632812 37.85986328 C-141.83683534 13.19464751 -124.83730777 -6.30562665 -100.80859375 -17.34765625 C-66.30074116 -32.54416888 -28.4081484 -23.33590424 0 0 Z " fill="#5F5F61" transform="translate(291,221)"/>
<path d="M0 0 C8.04086389 5.90129489 15.13649312 13.9119772 17 24 C17.93865693 37.07964572 15.92809706 46.98546722 7.1672821 57.12011719 C1.56044308 63.39469537 -4.28509655 69.36071864 -10.29296875 75.25 C-11.25275162 76.19770682 -12.21199396 77.14596133 -13.17073059 78.09472656 C-17.18745191 82.06934219 -21.20714683 86.04081352 -25.24291992 89.99609375 C-27.7325258 92.43674545 -30.21188282 94.88742711 -32.68517494 97.34460449 C-34.0637687 98.70873737 -35.45302142 100.06207198 -36.84257507 101.41503906 C-46.16735201 110.70115693 -52.79878144 120.5384785 -53 134 C-51.51991008 150.36321637 -37.71360092 161.4574166 -26.7421875 172.25 C-25.78487626 173.19778493 -24.82802799 174.14603768 -23.87161255 175.09472656 C-19.86494306 179.06830882 -15.85387961 183.0373757 -11.83251953 186.99609375 C-9.35161931 189.43896637 -6.87841552 191.88941941 -4.4097023 194.34460449 C-3.03555706 195.70700123 -1.6532628 197.06116337 -0.27072144 198.41503906 C9.95282234 208.5971009 16.96500322 217.73103781 17.4375 232.4375 C17.18844837 244.27338227 12.35494591 253.20470849 3.93359375 261.390625 C-4.57292738 268.47080017 -14.38656534 268.76893251 -25 268 C-36.80434865 265.20843106 -45.70552151 256.73973681 -53.99853516 248.38964844 C-54.963246 247.42901244 -55.92859173 246.46901367 -56.89451599 245.50959778 C-59.49435108 242.92333534 -62.08473126 240.32779884 -64.67300463 237.72997189 C-67.39714607 234.99817916 -70.12866374 232.27377705 -72.85897827 229.54815674 C-77.44199007 224.9705876 -82.01867588 220.38676527 -86.59179688 215.79931641 C-91.85930284 210.51549662 -97.13751502 205.24255713 -102.42143595 199.97515655 C-106.97756905 195.4326926 -111.5277609 190.88433942 -116.07315099 186.3311255 C-118.7792164 183.62041203 -121.48719847 180.91169669 -124.2005806 178.20830536 C-126.75362955 175.6640029 -129.29907591 173.11231939 -131.83914375 170.55505943 C-133.20326328 169.18516172 -134.57466311 167.82252529 -135.94636536 166.46022034 C-144.96007189 157.35460252 -154.12588709 146.64552941 -155.02734375 133.30859375 C-154.74158193 109.18213174 -129.45754348 91.26110647 -113.87109375 75.59765625 C-112.85968571 74.58087114 -111.84827786 73.56408583 -110.83687019 72.54730034 C-106.62916589 68.31807292 -102.42006897 64.09023966 -98.20727444 59.86608219 C-92.22149799 53.86403358 -86.24443587 47.85359244 -80.27895874 41.83136564 C-76.05046314 37.56404519 -71.81230807 33.30646999 -67.56699425 29.05588144 C-65.04487493 26.53013409 -62.52699198 24.00049808 -60.01946831 21.46025276 C-57.22535064 18.63017611 -54.41131347 15.82042032 -51.59545898 13.01196289 C-50.78424088 12.18433945 -49.97302277 11.356716 -49.13722229 10.50401306 C-36.28437117 -2.21181795 -16.9412565 -10.21853567 0 0 Z " fill="#A22A29" transform="translate(886,311)"/>
<path d="M0 0 C2.89816746 1.76901131 5.4389279 3.77513042 8 6 C8.79148438 6.68320312 9.58296875 7.36640625 10.3984375 8.0703125 C17.36770523 14.224712 24.10123682 20.61259467 30.16404724 27.66822815 C33.8351141 31.87120299 37.70705327 35.82174755 41.67602539 39.74194336 C42.40868118 40.4699263 43.14133698 41.19790924 43.89619446 41.94795227 C45.4735985 43.51492456 47.05210245 45.08079026 48.63160896 46.64564323 C51.13633115 49.12817603 53.63692444 51.61479882 56.13633728 54.10267639 C63.23841091 61.17131073 70.34461828 68.2357466 77.46118164 75.28979492 C81.82644246 79.61729163 86.18425876 83.95216797 90.53747368 88.29178047 C92.19040872 89.93669512 93.84610958 91.57883556 95.50468636 93.21806145 C97.8279303 95.51465926 100.14156695 97.8205549 102.45336914 100.12866211 C103.1314563 100.7943924 103.80954346 101.46012268 104.50817871 102.14602661 C112.98915735 110.66263708 118.94761113 119.62777814 119.4375 131.875 C118.95960474 147.54598199 109.14960924 157.19048721 98.5 167.5625 C96.86211665 169.16545219 95.22666405 170.77089217 93.59375 172.37890625 C92.87896484 173.0757251 92.16417969 173.77254395 91.42773438 174.49047852 C89.47503903 176.50895754 87.64187352 178.55437934 85.81257629 180.68147278 C82.21051936 184.80934264 78.4359393 188.72510091 74.57104492 192.60595703 C73.86432144 193.31925171 73.15759796 194.03254639 72.42945862 194.76745605 C70.11599902 197.10044594 67.79869804 199.42956256 65.48046875 201.7578125 C64.68296015 202.55939663 63.88545155 203.36098076 63.06377602 204.18685532 C58.84715592 208.42424323 54.62733243 212.65841194 50.4050293 216.89013672 C46.06258701 221.24366315 41.73195517 225.60874558 37.40383434 229.97650337 C34.05519749 233.3513498 30.69764319 236.71721825 27.33767128 240.08077621 C25.73763779 241.68565917 24.14096409 243.29389951 22.54784203 244.90564346 C20.31367363 247.16430948 18.06704034 249.40985216 15.81713867 251.65283203 C14.84963181 252.63955399 14.84963181 252.63955399 13.86257935 253.64620972 C5.02377855 262.38701086 -6.31647232 268.95895298 -19 269 C-28.95119879 268.32880477 -36.92810299 264.5537556 -43.8125 257.3125 C-50.78441123 248.64293663 -53.64848585 239.2141541 -52.77734375 228.1796875 C-50.45443174 211.98696107 -37.85863809 201.68525651 -26.7421875 190.75 C-25.78487626 189.80221507 -24.82802799 188.85396232 -23.87161255 187.90527344 C-19.86494306 183.93169118 -15.85387961 179.9626243 -11.83251953 176.00390625 C-9.35161931 173.56103363 -6.87841552 171.11058059 -4.4097023 168.65539551 C-3.03555706 167.29299877 -1.6532628 165.93883663 -0.27072144 164.58496094 C9.2399821 155.11284699 16.8730575 145.87370231 17.4375 132.0625 C17.04225128 118.53811979 8.84430461 109.47020791 -0.4375 100.5 C-4.10965096 96.92933121 -7.7225235 93.3819221 -11.02734375 89.46484375 C-14.50674383 85.42244822 -18.26685015 81.70583218 -22.0703125 77.97265625 C-22.71833328 77.33488251 -23.36635406 76.69710876 -24.03401184 76.04000854 C-26.74660503 73.37269177 -29.46096881 70.70745345 -32.18994141 68.05688477 C-34.20110134 66.10061823 -36.19897259 64.13152978 -38.1953125 62.16015625 C-38.80376007 61.57549088 -39.41220764 60.9908255 -40.03909302 60.38844299 C-48.54335361 51.93614885 -52.84275254 41.95080694 -53 30 C-52.24442887 19.81378183 -48.24051806 11.24051806 -41 4 C-28.25209658 -4.91925457 -14.26535403 -7.30331522 0 0 Z " fill="#606062" transform="translate(150,427)"/>
<path d="M0 0 C0.66 0.33 1.32 0.66 2 1 C1.3709375 1.83660156 0.741875 2.67320312 0.09375 3.53515625 C-15.50338233 24.6018504 -25.50297011 47.4997847 -21.66748047 74.32568359 C-20.76809256 78.99145377 -19.46339986 83.48232657 -18 88 C-17.72285156 88.87398438 -17.44570313 89.74796875 -17.16015625 90.6484375 C-8.09328656 115.8016889 11.77562919 134.95295413 30.28613281 153.3996582 C31.460517 154.57375931 32.63467905 155.74808265 33.80863953 156.92260742 C36.95228949 160.06654067 40.09898118 163.20741256 43.24628925 166.34768319 C46.55124465 169.6463259 49.85330942 172.94785983 53.15570068 176.24906921 C59.39004189 182.4803202 65.62692443 188.70902092 71.8647573 194.93677634 C78.97451845 202.03530408 86.08139126 209.13672062 93.18804026 216.23836386 C107.78884806 230.82875964 122.39322288 245.4155804 137 260 C135.15315712 263.98719747 132.54078754 266.79894485 129.4765625 269.89453125 C128.93397797 270.44614426 128.39139343 270.99775726 127.83236694 271.56608582 C126.6868779 272.72604491 125.53858899 273.8832449 124.38769531 275.0378418 C122.62570956 276.81178562 120.88323584 278.60353036 119.140625 280.39648438 C118.02458982 281.52197714 116.9074396 282.64636557 115.7890625 283.76953125 C115.26913727 284.3089888 114.74921204 284.84844635 114.21353149 285.4042511 C112.71728516 286.88208008 112.71728516 286.88208008 110 289 C106.63377436 288.69218945 104.960822 287.33255868 102.62768555 284.98413086 C101.9898967 284.34934311 101.35210785 283.71455536 100.69499207 283.06053162 C100.01576187 282.36895462 99.33653168 281.67737762 98.63671875 280.96484375 C97.57140678 279.89672203 97.57140678 279.89672203 96.48457336 278.80702209 C94.98074711 277.29647114 93.4805242 275.78232562 91.98364258 274.26489258 C89.71348542 271.96383908 87.43307986 269.67338072 85.15039062 267.38476562 C83.68688052 265.91207369 82.22397097 264.43878466 80.76171875 262.96484375 C80.08856125 262.28743637 79.41540375 261.61002899 78.72184753 260.91209412 C78.0746022 260.25524124 77.42735687 259.59838837 76.76049805 258.92163086 C76.20186569 258.3561705 75.64323334 257.79071014 75.06767273 257.20811462 C73.25981256 255.27745973 71.53397331 253.30646477 69.80860901 251.30265808 C65.8353333 246.74340442 61.59934564 242.48767503 57.30175781 238.23583984 C56.46009064 237.39884552 55.61842346 236.5618512 54.75125122 235.69949341 C52.4633472 233.4247501 50.1732914 231.15219631 47.88272953 228.88013029 C45.46682129 226.48181699 43.05507674 224.07932655 40.64324951 221.6769104 C32.44948158 213.51635379 24.2515817 205.35998142 16.04296875 197.21435547 C11.49801649 192.70419254 6.958661 188.18847151 2.42518115 183.6667763 C0.03632739 181.28461823 -2.35600092 178.90622862 -4.753685 176.53293991 C-28.49129745 153.0326046 -52.19396572 125.96703197 -52.4375 90.75 C-52.3414921 83.13456766 -51.46726283 76.24261024 -49 69 C-48.48953125 67.34484375 -48.48953125 67.34484375 -47.96875 65.65625 C-40.87059474 43.97810014 -26.37349071 27.20502281 -10.37109375 11.40234375 C-7.08297717 8.0708912 -4.03776034 4.55798841 -1 1 C-0.67 0.67 -0.34 0.34 0 0 Z " fill="#4B4A4C" transform="translate(408,380)"/>
</svg>
